<svg xmlns="http://www.w3.org/2000/svg" xmlns:xlink="http://www.w3.org/1999/xlink" viewBox="0 0 2000 700"><defs><style>.cls-1,.cls-4,.cls-5,.cls-6{fill:none;}.cls-2{fill:url(#未命名的渐变_19);}.cls-3{fill:url(#未命名的渐变_19-2);}.cls-4,.cls-5,.cls-6{stroke-miterlimit:10;stroke-width:6px;}.cls-4{stroke:url(#未命名的渐变_19-3);}.cls-5{stroke:url(#未命名的渐变_19-4);}.cls-6{stroke:url(#未命名的渐变_19-5);}.cls-7{fill:url(#未命名的渐变_28);}.cls-8{fill:url(#未命名的渐变_28-2);}.cls-9{fill:url(#未命名的渐变_28-3);}.cls-10{fill:url(#未命名的渐变_28-4);}.cls-11{fill:url(#未命名的渐变_28-5);}.cls-12{fill:url(#未命名的渐变_28-6);}.cls-13{fill:url(#未命名的渐变_28-7);}.cls-14{fill:url(#未命名的渐变_19-6);}.cls-15{fill:url(#未命名的渐变_19-7);}.cls-16{fill:url(#未命名的渐变_19-8);}.cls-17{fill:url(#未命名的渐变_19-9);}.cls-18{fill:url(#未命名的渐变_19-10);}.cls-19{fill:url(#未命名的渐变_19-11);}.cls-20{fill:url(#未命名的渐变_19-12);}.cls-21{fill:url(#未命名的渐变_19-13);}.cls-22{fill:url(#未命名的渐变_19-14);}.cls-23{fill:url(#未命名的渐变_19-15);}.cls-24{fill:url(#未命名的渐变_19-16);}.cls-25{fill:url(#未命名的渐变_19-17);}.cls-26{fill:url(#未命名的渐变_19-18);}.cls-27{fill:url(#未命名的渐变_19-19);}.cls-28{fill:url(#未命名的渐变_19-20);}.cls-29{fill:url(#未命名的渐变_19-21);}.cls-30{fill:url(#未命名的渐变_19-22);}.cls-31{fill:url(#未命名的渐变_19-23);}.cls-32{fill:url(#未命名的渐变_19-24);}.cls-33{fill:url(#未命名的渐变_19-25);}.cls-34{fill:url(#未命名的渐变_19-26);}.cls-35{fill:url(#未命名的渐变_19-27);}.cls-36{fill:url(#未命名的渐变_19-28);}.cls-37{fill:url(#未命名的渐变_19-29);}.cls-38{fill:url(#未命名的渐变_19-30);}.cls-39{fill:url(#未命名的渐变_19-31);}.cls-40{fill:url(#未命名的渐变_19-32);}.cls-41{fill:url(#未命名的渐变_19-33);}.cls-42{fill:url(#未命名的渐变_19-34);}.cls-43{fill:url(#未命名的渐变_19-35);}.cls-44{fill:url(#未命名的渐变_19-36);}.cls-45{fill:url(#未命名的渐变_19-37);}.cls-46{fill:url(#未命名的渐变_19-38);}.cls-47{fill:url(#未命名的渐变_19-39);}.cls-48{fill:url(#未命名的渐变_19-40);}.cls-49{fill:url(#未命名的渐变_19-41);}.cls-50{fill:url(#未命名的渐变_19-42);}.cls-51{fill:url(#未命名的渐变_19-43);}.cls-52{fill:url(#未命名的渐变_19-44);}.cls-53{fill:url(#未命名的渐变_19-45);}.cls-54{fill:url(#未命名的渐变_19-46);}.cls-55{fill:url(#未命名的渐变_19-47);}.cls-56{fill:url(#未命名的渐变_19-48);}.cls-57{fill:url(#未命名的渐变_19-49);}.cls-58{fill:url(#未命名的渐变_19-50);}.cls-59{fill:url(#未命名的渐变_19-51);}</style><linearGradient id="未命名的渐变_19" x1="347.5" y1="260" x2="572.5" y2="260" gradientUnits="userSpaceOnUse"><stop offset="0" stop-color="#b28247"/><stop offset="1" stop-color="#c9a063"/></linearGradient><linearGradient id="未命名的渐变_19-2" x1="617.5" y1="260" x2="842.5" y2="260" xlink:href="#未命名的渐变_19"/><linearGradient id="未命名的渐变_19-3" x1="884.5" y1="260" x2="1115.5" y2="260" xlink:href="#未命名的渐变_19"/><linearGradient id="未命名的渐变_19-4" x1="1154.5" y1="260" x2="1385.5" y2="260" xlink:href="#未命名的渐变_19"/><linearGradient id="未命名的渐变_19-5" x1="1424.5" y1="260" x2="1655.5" y2="260" xlink:href="#未命名的渐变_19"/><linearGradient id="未命名的渐变_28" x1="392.5" y1="305" x2="437.5" y2="305" gradientUnits="userSpaceOnUse"><stop offset="0" stop-color="#fff"/><stop offset="1" stop-color="#fff" stop-opacity="0.3"/></linearGradient><linearGradient id="未命名的渐变_28-2" x1="392.5" y1="282.5" x2="527.5" y2="282.5" gradientTransform="translate(177.5 742.5) rotate(-90)" xlink:href="#未命名的渐变_28"/><linearGradient id="未命名的渐变_28-3" x1="392.5" y1="192.5" x2="527.5" y2="192.5" gradientTransform="translate(267.5 652.5) rotate(-90)" xlink:href="#未命名的渐变_28"/><linearGradient id="未命名的渐变_28-4" x1="662.5" x2="707.5" xlink:href="#未命名的渐变_28"/><linearGradient id="未命名的渐变_28-5" x1="662.5" y1="282.5" x2="797.5" y2="282.5" gradientTransform="translate(447.5 1012.5) rotate(-90)" xlink:href="#未命名的渐变_28"/><linearGradient id="未命名的渐变_28-6" x1="662.5" y1="192.5" x2="797.5" y2="192.5" gradientTransform="translate(537.5 922.5) rotate(-90)" xlink:href="#未命名的渐变_28"/><linearGradient id="未命名的渐变_28-7" x1="752.5" y1="237.5" x2="797.5" y2="237.5" xlink:href="#未命名的渐变_28"/><linearGradient id="未命名的渐变_19-6" x1="932.5" y1="260" x2="977.5" y2="260" xlink:href="#未命名的渐变_19"/><linearGradient id="未命名的渐变_19-7" x1="932.5" y1="192.5" x2="1067.5" y2="192.5" gradientTransform="translate(807.5 1192.5) rotate(-90)" xlink:href="#未命名的渐变_19"/><linearGradient id="未命名的渐变_19-8" x1="932.5" y1="327.5" x2="1067.5" y2="327.5" gradientTransform="translate(672.5 1327.5) rotate(-90)" xlink:href="#未命名的渐变_19"/><linearGradient id="未命名的渐变_19-9" x1="1022.5" y1="282.5" x2="1067.5" y2="282.5" xlink:href="#未命名的渐变_19"/><linearGradient id="未命名的渐变_19-10" x1="1202.5" y1="260" x2="1247.5" y2="260" xlink:href="#未命名的渐变_19"/><linearGradient id="未命名的渐变_19-11" x1="1292.5" y1="260" x2="1337.5" y2="260" xlink:href="#未命名的渐变_19"/><linearGradient id="未命名的渐变_19-12" x1="1247.5" y1="327.5" x2="1292.5" y2="327.5" xlink:href="#未命名的渐变_19"/><linearGradient id="未命名的渐变_19-13" x1="1517.5" y1="260" x2="1562.5" y2="260" xlink:href="#未命名的渐变_19"/><linearGradient id="未命名的渐变_19-14" x1="140.15625" y1="579.12305" x2="178.32031" y2="579.12305" xlink:href="#未命名的渐变_19"/><linearGradient id="未命名的渐变_19-15" x1="181.875" y1="579.12305" x2="224.25781" y2="579.12305" xlink:href="#未命名的渐变_19"/><linearGradient id="未命名的渐变_19-16" x1="228.00781" y1="579.12305" x2="262.42188" y2="579.12305" xlink:href="#未命名的渐变_19"/><linearGradient id="未命名的渐变_19-17" x1="267.96875" y1="579.12305" x2="300.66406" y2="579.12305" xlink:href="#未命名的渐变_19"/><linearGradient id="未命名的渐变_19-18" x1="303.32031" y1="579.12305" x2="358.20313" y2="579.12305" xlink:href="#未命名的渐变_19"/><linearGradient id="未命名的渐变_19-19" x1="363.51563" y1="579.12305" x2="405.50781" y2="579.12305" xlink:href="#未命名的渐变_19"/><linearGradient id="未命名的渐变_19-20" x1="411.875" y1="579.12305" x2="426.52344" y2="579.12305" xlink:href="#未命名的渐变_19"/><linearGradient id="未命名的渐变_19-21" x1="431.875" y1="579.12305" x2="467.61719" y2="579.12305" xlink:href="#未命名的渐变_19"/><linearGradient id="未命名的渐变_19-22" x1="489.96094" y1="579.65039" x2="514.53125" y2="579.65039" xlink:href="#未命名的渐变_19"/><linearGradient id="未命名的渐变_19-23" x1="538.55469" y1="579.12305" x2="576.71875" y2="579.12305" xlink:href="#未命名的渐变_19"/><linearGradient id="未命名的渐变_19-24" x1="581.52344" y1="579.12305" x2="617.42188" y2="579.12305" xlink:href="#未命名的渐变_19"/><linearGradient id="未命名的渐变_19-25" x1="622.22656" y1="579.12305" x2="660.35156" y2="579.12305" xlink:href="#未命名的渐变_19"/><linearGradient id="未命名的渐变_19-26" x1="666.75781" y1="579.12305" x2="702.77344" y2="579.12305" xlink:href="#未命名的渐变_19"/><linearGradient id="未命名的渐变_19-27" x1="706.67969" y1="579.12305" x2="761.5625" y2="579.12305" xlink:href="#未命名的渐变_19"/><linearGradient id="未命名的渐变_19-28" x1="765.27344" y1="579.12305" x2="803.39844" y2="579.12305" xlink:href="#未命名的渐变_19"/><linearGradient id="未命名的渐变_19-29" x1="810.11719" y1="579.12305" x2="868.24219" y2="579.12305" xlink:href="#未命名的渐变_19"/><linearGradient id="未命名的渐变_19-30" x1="870.39063" y1="579.12305" x2="920.54688" y2="579.12305" xlink:href="#未命名的渐变_19"/><linearGradient id="未命名的渐变_19-31" x1="922.65625" y1="579.12305" x2="964.64844" y2="579.12305" xlink:href="#未命名的渐变_19"/><linearGradient id="未命名的渐变_19-32" x1="969.96094" y1="579.12305" x2="1005.70313" y2="579.12305" xlink:href="#未命名的渐变_19"/><linearGradient id="未命名的渐变_19-33" x1="1012.10938" y1="579.12305" x2="1048.00781" y2="579.12305" xlink:href="#未命名的渐变_19"/><linearGradient id="未命名的渐变_19-34" x1="1071.99219" y1="579.65039" x2="1096.5625" y2="579.65039" xlink:href="#未命名的渐变_19"/><linearGradient id="未命名的渐变_19-35" x1="1120.58594" y1="579.12305" x2="1158.75" y2="579.12305" xlink:href="#未命名的渐变_19"/><linearGradient id="未命名的渐变_19-36" x1="1161.95313" y1="579.12305" x2="1200.07813" y2="579.12305" xlink:href="#未命名的渐变_19"/><linearGradient id="未命名的渐变_19-37" x1="1204.0625" y1="579.12305" x2="1258.94531" y2="579.12305" xlink:href="#未命名的渐变_19"/><linearGradient id="未命名的渐变_19-38" x1="1263.20313" y1="579.12305" x2="1297.61719" y2="579.12305" xlink:href="#未命名的渐变_19"/><linearGradient id="未命名的渐变_19-39" x1="1303.16406" y1="579.12305" x2="1339.0625" y2="579.12305" xlink:href="#未命名的渐变_19"/><linearGradient id="未命名的渐变_19-40" x1="1343.86719" y1="579.12305" x2="1381.99219" y2="579.12305" xlink:href="#未命名的渐变_19"/><linearGradient id="未命名的渐变_19-41" x1="1388.24219" y1="579.12305" x2="1427.10938" y2="579.12305" xlink:href="#未命名的渐变_19"/><linearGradient id="未命名的渐变_19-42" x1="1431.91406" y1="579.12305" x2="1464.72656" y2="579.12305" xlink:href="#未命名的渐变_19"/><linearGradient id="未命名的渐变_19-43" x1="1467.38281" y1="579.12305" x2="1503.28125" y2="579.12305" xlink:href="#未命名的渐变_19"/><linearGradient id="未命名的渐变_19-44" x1="1527.26563" y1="579.65039" x2="1551.83594" y2="579.65039" xlink:href="#未命名的渐变_19"/><linearGradient id="未命名的渐变_19-45" x1="1575.85938" y1="579.12305" x2="1614.02344" y2="579.12305" xlink:href="#未命名的渐变_19"/><linearGradient id="未命名的渐变_19-46" x1="1618.82813" y1="579.12305" x2="1654.72656" y2="579.12305" xlink:href="#未命名的渐变_19"/><linearGradient id="未命名的渐变_19-47" x1="1659.53125" y1="579.12305" x2="1697.65625" y2="579.12305" xlink:href="#未命名的渐变_19"/><linearGradient id="未命名的渐变_19-48" x1="1704.0625" y1="579.12305" x2="1740.07813" y2="579.12305" xlink:href="#未命名的渐变_19"/><linearGradient id="未命名的渐变_19-49" x1="1745.625" y1="579.12305" x2="1781.52344" y2="579.12305" xlink:href="#未命名的渐变_19"/><linearGradient id="未命名的渐变_19-50" x1="1786.875" y1="579.12305" x2="1822.61719" y2="579.12305" xlink:href="#未命名的渐变_19"/><linearGradient id="未命名的渐变_19-51" x1="1827.03125" y1="579.12305" x2="1861.44531" y2="579.12305" xlink:href="#未命名的渐变_19"/></defs><title>资源 1</title><g id="图层_2" data-name="图层 2"><g id="图层_1-2" data-name="图层 1"><rect class="cls-1" width="2000" height="700"/><rect class="cls-2" x="347.5" y="125" width="225" height="270"/><rect class="cls-3" x="617.5" y="125" width="225" height="270"/><rect class="cls-4" x="887.5" y="125" width="225" height="270"/><rect class="cls-5" x="1157.5" y="125" width="225" height="270"/><rect class="cls-6" x="1427.5" y="125" width="225" height="270"/><rect class="cls-7" x="392.5" y="260" width="45" height="90"/><rect class="cls-8" x="437.5" y="215" width="45" height="135" transform="translate(742.5 -177.5) rotate(90)"/><rect class="cls-9" x="437.5" y="125" width="45" height="135" transform="translate(652.5 -267.5) rotate(90)"/><rect class="cls-10" x="662.5" y="260" width="45" height="90"/><rect class="cls-11" x="707.5" y="215" width="45" height="135" transform="translate(1012.5 -447.5) rotate(90)"/><rect class="cls-12" x="707.5" y="125" width="45" height="135" transform="translate(922.5 -537.5) rotate(90)"/><rect class="cls-13" x="752.5" y="215" width="45" height="45"/><rect class="cls-14" x="932.5" y="215" width="45" height="90"/><rect class="cls-15" x="977.5" y="125" width="45" height="135" transform="translate(1192.5 -807.5) rotate(90)"/><rect class="cls-16" x="977.5" y="260" width="45" height="135" transform="translate(1327.5 -672.5) rotate(90)"/><rect class="cls-17" x="1022.5" y="260" width="45" height="45"/><rect class="cls-18" x="1202.5" y="170" width="45" height="180"/><rect class="cls-19" x="1292.5" y="170" width="45" height="180"/><rect class="cls-20" x="1247.5" y="305" width="45" height="45"/><rect class="cls-21" x="1517.5" y="170" width="45" height="180"/><path class="cls-22" d="M140.15625,552.46289h18.16406a32.67,32.67,0,0,1,8.55469.918,14.66634,14.66634,0,0,1,5.78125,3.10547,15.98428,15.98428,0,0,1,4.16016,5.72265,17.25959,17.25959,0,0,1,1.5039,7.01172,16.50182,16.50182,0,0,1-2.61718,8.98438,14.83891,14.83891,0,0,1-6.32813,5.82031,23.65309,23.65309,0,0,1-9.88281,1.75781h-4.6875v20H140.15625V572.9707h16.60156a10.28006,10.28006,0,0,0,4.6875-.74218,3.41626,3.41626,0,0,0,1.67969-3.20313,3.1017,3.1017,0,0,0-1.44531-2.87109,9.72162,9.72162,0,0,0-4.80469-.87891H140.15625Z"/><path class="cls-23" d="M224.25781,552.46289v9.25781q0,8.90625-1.875,13.20313a18.541,18.541,0,0,1-9.10156,9.64844,23.36861,23.36861,0,0,1-10.27344,2.14843q-10.07812,0-15.9375-6.44531a17.93837,17.93837,0,0,1-4.043-7.01172,37.22,37.22,0,0,1-1.15234-10.332V552.46289h14.60938v13.28125q0,4.53222,1.75781,6.36719a6.32323,6.32323,0,0,0,4.84375,1.91406,5.77208,5.77208,0,0,0,4.9414-2.168q1.62012-2.168,1.6211-6.582v-12.8125Zm-9.21875,40.50781v12.8125h-24.375V592.9707Z"/><path class="cls-24" d="M262.42188,552.46289v12.8125H228.00781v-12.8125ZM245,572.9707V586.252q0,4.06349,1.21094,5.39063,1.24952,1.32861,5.03906,1.32812h9.45313v12.8125H247.07031q-6.48486,0-10.07812-2.38281a12.68793,12.68793,0,0,1-5-6.07422,28.97482,28.97482,0,0,1-1.48438-10.332V572.9707Z"/><path class="cls-25" d="M282.61719,552.46289V572.9707h18.04687v12.8125H282.61719v20H267.96875V552.46289Z"/><path class="cls-26" d="M330.58594,551.4082a29.75775,29.75775,0,0,1,13.28125,3.04688,24.42089,24.42089,0,0,1,12.03125,12.57812,31.15723,31.15723,0,0,1,2.30469,12.34375q0,11.83594-7.61719,19.6875-7.53956,7.77393-19.45313,7.77344-11.87548,0-19.60937-7.42187-8.20312-7.88966-8.20313-20.07813a29.56774,29.56774,0,0,1,3.35938-13.94531A25.07506,25.07506,0,0,1,317.89063,554.377,27.538,27.538,0,0,1,330.58594,551.4082Zm.07812,12.26563a10.69389,10.69389,0,0,0-9.21875,4.41406q-2.92968,4.10157-2.92968,10.89844,0,7.188,3.39843,11.60156,3.085,3.98438,8.94532,3.98438,6.32813,0,9.4531-4.80469a18.873,18.873,0,0,0,2.69533-10.42969q0-7.61718-3.59375-11.79687A10.82694,10.82694,0,0,0,330.66406,563.67383Z"/><path class="cls-27" d="M363.51563,552.46289h23.08593A32.57806,32.57806,0,0,1,395,553.36133a14.24422,14.24422,0,0,1,5.66406,2.96875,11.645,11.645,0,0,1,3.47657,4.92187,25.52128,25.52128,0,0,1,1.36718,8.75V605.7832H390.85938V570.74414q0-3.12452-1.25-4.29687-1.251-1.17187-4.53125-1.17188h-6.91407V605.7832H363.51563Z"/><path class="cls-28" d="M426.52344,552.46289v12.8125H411.875v-12.8125Zm0,20.50781v32.8125H411.875V572.9707Z"/><path class="cls-29" d="M467.61719,552.46289v12.8125h-5.39063a19.53154,19.53154,0,0,0-6.52343.9375,12.35576,12.35576,0,0,0-4.6875,3.04688,13.61937,13.61937,0,0,0-3.94532,9.92187,13.34524,13.34524,0,0,0,3.78907,9.53125,12.55467,12.55467,0,0,0,4.9414,3.30078,21.59982,21.59982,0,0,0,7.05078.957h4.76563v12.8125h-7.1875q-9.68848,0-15.89844-3.71093a25.497,25.497,0,0,1-11.01562-13.59375,26.56348,26.56348,0,0,1-1.64063-9.17969,27.56783,27.56783,0,0,1,2.73438-11.91406,26.36155,26.36155,0,0,1,5.46875-7.73438,23.91866,23.91866,0,0,1,11.79687-6.28906,41.943,41.943,0,0,1,9.10156-.89844Z"/><path class="cls-30" d="M502.46094,547.6582h12.07031l-12.5,63.98438H489.96094Z"/><path class="cls-31" d="M538.55469,552.46289h18.16406a32.67,32.67,0,0,1,8.55469.918,14.66627,14.66627,0,0,1,5.78125,3.10547,15.98426,15.98426,0,0,1,4.16015,5.72265,17.25944,17.25944,0,0,1,1.50391,7.01172,16.50183,16.50183,0,0,1-2.61719,8.98438,14.83888,14.83888,0,0,1-6.32812,5.82031,23.65309,23.65309,0,0,1-9.88281,1.75781h-4.6875v20H538.55469V572.9707h16.60156a10.28006,10.28006,0,0,0,4.6875-.74218,3.41626,3.41626,0,0,0,1.67969-3.20313,3.1017,3.1017,0,0,0-1.44531-2.87109,9.72162,9.72162,0,0,0-4.80469-.87891H538.55469Z"/><path class="cls-32" d="M617.42188,552.46289v12.8125H581.52344v-12.8125Zm0,20.50781v12.8125h-21.25v7.1875h21.25v12.8125H581.52344V572.9707Z"/><path class="cls-33" d="M622.22656,552.46289h18.28125q8.124,0,11.64063,1.48438a12.58583,12.58583,0,0,1,7.07031,7.07031,14.96223,14.96223,0,0,1,1.13281,5.78125,13.1752,13.1752,0,0,1-3.16408,9.10156,10.67834,10.67834,0,0,1-3.18357,2.51953,21.68967,21.68967,0,0,1-4.86328,1.582q4.374.9375,6.28906,3.20313,2.53857,3.00879,2.53906,8.47656V605.7832H643.35938V593.24414q0-4.25684-1.85547-5.85937-1.856-1.60109-6.85547-1.60157H622.22656V572.9707h17.26563q3.39843,0,4.53125-1.05468a3.70812,3.70812,0,0,0,1.13281-2.85157q0-3.78809-5.11719-3.78906h-17.8125Z"/><path class="cls-34" d="M702.77344,552.46289v12.8125H666.75781v-12.8125Zm0,20.50781v12.8125H681.40625v20H666.75781V572.9707Z"/><path class="cls-35" d="M733.94531,551.4082a29.75772,29.75772,0,0,1,13.28125,3.04688,24.42082,24.42082,0,0,1,12.03125,12.57812A31.15705,31.15705,0,0,1,761.5625,579.377q0,11.83594-7.61719,19.6875-7.53954,7.77393-19.45312,7.77344-11.87549,0-19.60938-7.42187-8.20312-7.88966-8.20312-20.07813a29.56785,29.56785,0,0,1,3.35937-13.94531A25.07506,25.07506,0,0,1,721.25,554.377,27.538,27.538,0,0,1,733.94531,551.4082Zm.07813,12.26563a10.69388,10.69388,0,0,0-9.21875,4.41406q-2.9297,4.10157-2.92969,10.89844,0,7.188,3.39844,11.60156,3.085,3.98438,8.94531,3.98438,6.32813,0,9.45313-4.80469a18.87324,18.87324,0,0,0,2.69531-10.42969q0-7.61718-3.59375-11.79687A10.827,10.827,0,0,0,734.02344,563.67383Z"/><path class="cls-36" d="M765.27344,552.46289h18.28125q8.124,0,11.64062,1.48438a12.58584,12.58584,0,0,1,7.07032,7.07031,14.96223,14.96223,0,0,1,1.13281,5.78125,13.17533,13.17533,0,0,1-3.16406,9.10156,10.6787,10.6787,0,0,1-3.1836,2.51953,21.6895,21.6895,0,0,1-4.86328,1.582q4.374.9375,6.28906,3.20313,2.53859,3.00879,2.53907,8.47656V605.7832H786.40625V593.24414q0-4.25684-1.85547-5.85937-1.856-1.60109-6.85547-1.60157H765.27344V572.9707h17.26562q3.39845,0,4.53125-1.05468a3.70809,3.70809,0,0,0,1.13282-2.85157q0-3.78809-5.11719-3.78906h-17.8125Z"/><path class="cls-37" d="M810.11719,552.46289h37.73437a42.33226,42.33226,0,0,1,10.19532.89844,12.8821,12.8821,0,0,1,5.82031,3.39844,13.71355,13.71355,0,0,1,3.3789,5.66406,30.48,30.48,0,0,1,.9961,8.67187v34.6875H853.59375V571.64258q0-3.47607-1.01562-4.72656-1.36816-1.64062-5.19532-1.64063H824.76563V605.7832H810.11719ZM845.9375,572.9707v32.8125H832.46094V572.9707Z"/><path class="cls-38" d="M903.86719,552.46289l16.67969,53.32031H870.39063l10.82031-32.8125h13.28125l-5.70313,20H902.5l-14.45312-40.50781Z"/><path class="cls-39" d="M922.65625,552.46289h23.08594a32.578,32.578,0,0,1,8.39844.89844,14.24416,14.24416,0,0,1,5.66406,2.96875,11.645,11.645,0,0,1,3.47656,4.92187,25.52127,25.52127,0,0,1,1.36719,8.75V605.7832H950V570.74414q0-3.12452-1.25-4.29687-1.251-1.17187-4.53125-1.17188h-6.91406V605.7832H922.65625Z"/><path class="cls-40" d="M1005.70313,552.46289v12.8125h-5.39063a19.53161,19.53161,0,0,0-6.52344.9375,12.35591,12.35591,0,0,0-4.6875,3.04688,13.61936,13.61936,0,0,0-3.94531,9.92187,13.34528,13.34528,0,0,0,3.78906,9.53125,12.55477,12.55477,0,0,0,4.94141,3.30078,21.59982,21.59982,0,0,0,7.05078.957h4.76563v12.8125h-7.1875q-9.68849,0-15.89844-3.71093a25.497,25.497,0,0,1-11.01563-13.59375,26.56347,26.56347,0,0,1-1.64062-9.17969,27.568,27.568,0,0,1,2.73437-11.91406,26.36228,26.36228,0,0,1,5.46875-7.73438,23.91869,23.91869,0,0,1,11.79688-6.28906,41.943,41.943,0,0,1,9.10156-.89844Z"/><path class="cls-41" d="M1048.00781,552.46289v12.8125h-35.89843v-12.8125Zm0,20.50781v12.8125h-21.25v7.1875h21.25v12.8125h-35.89843V572.9707Z"/><path class="cls-42" d="M1084.49219,547.6582h12.07031l-12.5,63.98438h-12.07031Z"/><path class="cls-43" d="M1120.58594,552.46289H1138.75a32.67,32.67,0,0,1,8.55469.918,14.66627,14.66627,0,0,1,5.78125,3.10547,15.98426,15.98426,0,0,1,4.16015,5.72265,17.25944,17.25944,0,0,1,1.50391,7.01172,16.50183,16.50183,0,0,1-2.61719,8.98438,14.83888,14.83888,0,0,1-6.32812,5.82031,23.65309,23.65309,0,0,1-9.88281,1.75781h-4.6875v20h-14.64844V572.9707h16.60156a10.28006,10.28006,0,0,0,4.6875-.74218,3.41626,3.41626,0,0,0,1.67969-3.20313,3.1017,3.1017,0,0,0-1.44531-2.87109,9.72162,9.72162,0,0,0-4.80469-.87891h-16.71875Z"/><path class="cls-44" d="M1161.95313,552.46289h18.28125q8.124,0,11.64062,1.48438a12.5858,12.5858,0,0,1,7.07031,7.07031,14.96205,14.96205,0,0,1,1.13282,5.78125,13.17529,13.17529,0,0,1-3.16407,9.10156,10.67854,10.67854,0,0,1-3.18359,2.51953,21.6895,21.6895,0,0,1-4.86328,1.582q4.374.9375,6.28906,3.20313,2.53857,3.00879,2.53906,8.47656V605.7832h-14.60937V593.24414q0-4.25684-1.85547-5.85937-1.856-1.60109-6.85547-1.60157h-12.42187V572.9707h17.26562q3.39845,0,4.53125-1.05468a3.70812,3.70812,0,0,0,1.13281-2.85157q0-3.78809-5.11718-3.78906h-17.8125Z"/><path class="cls-45" d="M1231.32813,551.4082a29.75775,29.75775,0,0,1,13.28125,3.04688,24.42089,24.42089,0,0,1,12.03125,12.57812,31.15723,31.15723,0,0,1,2.30468,12.34375q0,11.83594-7.61718,19.6875-7.53956,7.77393-19.45313,7.77344-11.87549,0-19.60937-7.42187-8.20312-7.88966-8.20313-20.07813a29.56774,29.56774,0,0,1,3.35938-13.94531,25.075,25.075,0,0,1,11.21093-11.01563A27.538,27.538,0,0,1,1231.32813,551.4082Zm.07812,12.26563a10.69389,10.69389,0,0,0-9.21875,4.41406q-2.92968,4.10157-2.92969,10.89844,0,7.188,3.39844,11.60156,3.085,3.98438,8.94531,3.98438,6.32813,0,9.45313-4.80469a18.87324,18.87324,0,0,0,2.69531-10.42969q0-7.61718-3.59375-11.79687A10.82694,10.82694,0,0,0,1231.40625,563.67383Z"/><path class="cls-46" d="M1297.61719,552.46289v12.8125h-34.41406v-12.8125Zm-17.42188,20.50781V586.252q0,4.06349,1.21094,5.39063,1.24951,1.32861,5.03906,1.32812h9.45313v12.8125h-13.63281q-6.48488,0-10.07813-2.38281a12.68793,12.68793,0,0,1-5-6.07422,28.97507,28.97507,0,0,1-1.48437-10.332V572.9707Z"/><path class="cls-47" d="M1339.0625,552.46289v12.8125h-35.89844v-12.8125Zm0,20.50781v12.8125h-21.25v7.1875h21.25v12.8125h-35.89844V572.9707Z"/><path class="cls-48" d="M1343.86719,552.46289h18.28125q8.124,0,11.64062,1.48438a12.58584,12.58584,0,0,1,7.07032,7.07031,14.96223,14.96223,0,0,1,1.13281,5.78125,13.17533,13.17533,0,0,1-3.16406,9.10156,10.6787,10.6787,0,0,1-3.1836,2.51953,21.6895,21.6895,0,0,1-4.86328,1.582q4.374.9375,6.28906,3.20313,2.53858,3.00879,2.53907,8.47656V605.7832H1365V593.24414q0-4.25684-1.85547-5.85937-1.856-1.60109-6.85547-1.60157h-12.42187V572.9707h17.26562q3.39844,0,4.53125-1.05468a3.70809,3.70809,0,0,0,1.13282-2.85157q0-3.78809-5.11719-3.78906h-17.8125Z"/><path class="cls-49" d="M1388.24219,552.46289h17.61719q7.96875,0,10.82031.78125a12.75819,12.75819,0,0,1,7.5,5.27344,14.86992,14.86992,0,0,1,2.30469,8.20312,13.41462,13.41462,0,0,1-1.77735,7.14844,14.83158,14.83158,0,0,1-5.68359,5.03906q8.08593,3.20362,8.08594,11.99219a15.49844,15.49844,0,0,1-2.1875,8.00781,13.296,13.296,0,0,1-9.10157,6.32813,42.16528,42.16528,0,0,1-8.04687.54687h-19.53125V592.9707H1405.625q5.11669,0,5.11719-3.82812a3.14492,3.14492,0,0,0-1.23047-2.77344,6.993,6.993,0,0,0-3.92578-.85937h-17.34375v-12.8125H1405.625a7.8475,7.8475,0,0,0,4.31641-.918,3.26919,3.26919,0,0,0,1.34765-2.91016q0-3.59327-4.84375-3.59375h-18.20312Z"/><path class="cls-50" d="M1446.5625,552.46289V592.9707h18.16406v12.8125h-32.8125V552.46289Z"/><path class="cls-51" d="M1503.28125,552.46289v12.8125h-35.89844v-12.8125Zm0,20.50781v12.8125h-21.25v7.1875h21.25v12.8125h-35.89844V572.9707Z"/><path class="cls-52" d="M1539.76563,547.6582h12.07031l-12.5,63.98438h-12.07031Z"/><path class="cls-53" d="M1575.85938,552.46289h18.16406a32.67,32.67,0,0,1,8.55469.918,14.66634,14.66634,0,0,1,5.78125,3.10547,15.98438,15.98438,0,0,1,4.16015,5.72265,17.2596,17.2596,0,0,1,1.50391,7.01172,16.50183,16.50183,0,0,1-2.61719,8.98438,14.83888,14.83888,0,0,1-6.32812,5.82031,23.65314,23.65314,0,0,1-9.88282,1.75781h-4.6875v20h-14.64843V572.9707h16.60156a10.28012,10.28012,0,0,0,4.6875-.74218,3.41626,3.41626,0,0,0,1.67969-3.20313,3.1017,3.1017,0,0,0-1.44532-2.87109,9.72158,9.72158,0,0,0-4.80468-.87891h-16.71875Z"/><path class="cls-54" d="M1654.72656,552.46289v12.8125h-35.89843v-12.8125Zm0,20.50781v12.8125h-21.25v7.1875h21.25v12.8125h-35.89843V572.9707Z"/><path class="cls-55" d="M1659.53125,552.46289h18.28125q8.124,0,11.64063,1.48438a12.58583,12.58583,0,0,1,7.07031,7.07031,14.96223,14.96223,0,0,1,1.13281,5.78125,13.17533,13.17533,0,0,1-3.16406,9.10156,10.67857,10.67857,0,0,1-3.1836,2.51953,21.6895,21.6895,0,0,1-4.86328,1.582q4.374.9375,6.28907,3.20313,2.53857,3.00879,2.53906,8.47656V605.7832h-14.60938V593.24414q0-4.25684-1.85547-5.85937-1.856-1.60109-6.85546-1.60157h-12.42188V572.9707h17.26563q3.39843,0,4.53125-1.05468a3.70812,3.70812,0,0,0,1.13281-2.85157q0-3.78809-5.11719-3.78906h-17.8125Z"/><path class="cls-56" d="M1740.07813,552.46289v12.8125H1704.0625v-12.8125Zm0,20.50781v12.8125h-21.36719v20H1704.0625V572.9707Z"/><path class="cls-57" d="M1781.52344,552.46289v12.8125H1745.625v-12.8125Zm0,20.50781v12.8125h-21.25v7.1875h21.25v12.8125H1745.625V572.9707Z"/><path class="cls-58" d="M1822.61719,552.46289v12.8125h-5.39063a19.53154,19.53154,0,0,0-6.52343.9375,12.35576,12.35576,0,0,0-4.6875,3.04688,13.61937,13.61937,0,0,0-3.94532,9.92187,13.34524,13.34524,0,0,0,3.78907,9.53125,12.55467,12.55467,0,0,0,4.9414,3.30078,21.59982,21.59982,0,0,0,7.05078.957h4.76563v12.8125h-7.1875q-9.68848,0-15.89844-3.71093a25.497,25.497,0,0,1-11.01562-13.59375,26.56348,26.56348,0,0,1-1.64063-9.17969,27.56783,27.56783,0,0,1,2.73438-11.91406,26.36192,26.36192,0,0,1,5.46875-7.73438,23.91866,23.91866,0,0,1,11.79687-6.28906,41.943,41.943,0,0,1,9.10156-.89844Z"/><path class="cls-59" d="M1861.44531,552.46289v12.8125h-34.41406v-12.8125Zm-17.42187,20.50781V586.252q0,4.06349,1.21094,5.39063,1.2495,1.32861,5.03906,1.32812h9.45312v12.8125h-13.63281q-6.48486,0-10.07812-2.38281a12.68788,12.68788,0,0,1-5-6.07422,28.97482,28.97482,0,0,1-1.48438-10.332V572.9707Z"/></g></g></svg>